<svg width="50" height="50" viewBox="0 0 50 50" fill="none" xmlns="http://www.w3.org/2000/svg">
<rect width="50" height="50" rx="8" fill="#BBFFCA"/>
<g clip-path="url(#clip0_1830_12169)">
<path d="M25 40C33.2843 40 40 33.2843 40 25C40 16.7157 33.2843 10 25 10C16.7157 10 10 16.7157 10 25C10 33.2843 16.7157 40 25 40Z" fill="#FFAD9E"/>
<path d="M40.0001 25C40.0001 24.064 39.9135 23.1481 39.7495 22.2595L35.0659 17.576L17.4762 32.9082L16.6562 33.8431L22.6254 39.8123C23.399 39.9353 24.192 40 25.0002 40C33.2843 40 40.0001 33.2842 40.0001 25Z" fill="#FF6262"/>
<path d="M16.442 33.629L16.6562 33.8433L17.8347 32.6648L17.6204 32.4505L16.442 33.629Z" fill="#273B7A"/>
<path d="M16.7103 32.2176L18.0674 33.5746L20.4243 31.2177L19.0673 29.8606L16.7103 32.2176Z" fill="#5985AA"/>
<path d="M20.4235 31.2178L19.7373 30.5316L17.3803 32.8886L18.0666 33.5748L20.4235 31.2178Z" fill="#386895"/>
<path d="M17.5665 30.7178L19.5664 32.7177L30.1728 22.1113L28.173 20.1114L17.5665 30.7178Z" fill="#386895"/>
<path d="M30.1733 22.1116L29.1655 21.1038L18.5591 31.7102L19.5669 32.718L30.1733 22.1116Z" fill="#273B7A"/>
<path d="M29.0485 25.9532C28.9839 25.9532 28.9193 25.9285 28.8699 25.8792C28.7712 25.7806 28.7712 25.6208 28.8699 25.5222L34.5898 19.8022C34.7647 19.6273 34.8611 19.3948 34.8611 19.1475C34.8611 18.9002 34.7648 18.6677 34.5898 18.4928L34.2446 18.1476C34.1459 18.0489 34.1459 17.8891 34.2446 17.7905C34.3433 17.6919 34.503 17.6919 34.6017 17.7905L34.9469 18.1358C35.2172 18.4059 35.366 18.7652 35.366 19.1476C35.366 19.5299 35.2171 19.8892 34.9469 20.1594L29.227 25.8793C29.1777 25.9284 29.1132 25.9532 29.0485 25.9532Z" fill="#273B7A"/>
<path d="M25.6377 22.2896L27.9946 24.6466L35.0656 17.5757L32.7086 15.2187L25.6377 22.2896Z" fill="#273B7A"/>
<path d="M35.0656 17.5761L33.8794 16.3899L26.8085 23.4608L27.9947 24.647L35.0656 17.5761Z" fill="#121149"/>
<path d="M27.9948 24.6472L29.5542 23.0878L27.1972 20.7308L25.6378 22.2902L27.9948 24.6472Z" fill="#121149"/>
<path d="M29.5548 23.0881L28.3687 21.9019L26.8092 23.4613L27.9954 24.6475L29.5548 23.0881Z" fill="#0A0A35"/>
</g>
<defs>
<clipPath id="clip0_1830_12169">
<rect width="30" height="30" fill="white" transform="translate(10 10)"/>
</clipPath>
</defs>
</svg>
