<svg width="50" height="50" viewBox="0 0 50 50" fill="none" xmlns="http://www.w3.org/2000/svg">
<rect width="50" height="50" rx="8" fill="#EC9C9C"/>
<g clip-path="url(#clip0_1830_12120)">
<path d="M25 40C33.2843 40 40 33.2843 40 25C40 16.7157 33.2843 10 25 10C16.7157 10 10 16.7157 10 25C10 33.2843 16.7157 40 25 40Z" fill="#50299B"/>
<path d="M33.6928 17.8426V32.8189C33.6928 33.2441 33.3384 33.5985 32.9132 33.5985H31.5432V20.0158L27.9054 16.378H18.4565V15.0079C18.4565 14.5827 18.8109 14.2284 19.2361 14.2284H30.055V17.063C30.055 17.4882 30.4093 17.8426 30.8345 17.8426H33.6928Z" fill="#E6E9EE"/>
<path d="M30.0786 14.2284V17.063C30.0786 17.4882 30.4329 17.8426 30.8581 17.8426H33.6928L30.0786 14.2284Z" fill="#54C0EB"/>
<path d="M27.9056 16.4016H17.0867C16.6615 16.4016 16.3071 16.7559 16.3071 17.1811V34.9922C16.3071 35.4174 16.6615 35.7717 17.0867 35.7717H30.7402C31.1654 35.7717 31.5197 35.4174 31.5197 34.9922V20.0158H28.6851C28.2599 20.0158 27.9056 19.6615 27.9056 19.2363V16.4016Z" fill="white"/>
<path d="M27.9053 16.4016V19.2363C27.9053 19.6615 28.2596 20.0158 28.6848 20.0158H31.5194L27.9053 16.4016Z" fill="#84DBFF"/>
<path d="M27.9053 16.4016V19.2363C27.9053 19.6615 28.2596 20.0158 28.6848 20.0158H31.5194L27.9053 16.4016Z" fill="white"/>
<path d="M23.9372 27.1969C22.449 26.4646 22.6144 25.5433 22.6144 25.5433C22.6144 25.5197 22.6144 25.5197 22.6144 25.4961C22.9687 25.9449 23.4411 26.2284 23.9372 26.2284C24.4333 26.2284 24.8821 25.9449 25.26 25.4961C25.26 25.5197 25.26 25.5197 25.26 25.5433C25.26 25.5433 25.26 25.5433 25.26 25.567C25.26 25.7087 25.2836 26.5355 23.9372 27.1969Z" fill="#F9B54C"/>
<path d="M23.9132 31.685C25.8975 31.685 27.6691 30.7402 28.803 29.2756L28.1652 27.3386L25.5195 26.063C25.5195 26.5118 25.4959 27.315 25.3541 28.3071C25.0234 27.2677 23.9132 27.1968 23.9132 27.1968C23.9132 27.1968 22.803 27.2913 22.4723 28.3307C22.3305 27.315 22.3069 26.5354 22.3069 26.063L19.6612 27.3386L19.0234 29.2756C20.1573 30.7402 21.9289 31.685 23.9132 31.685Z" fill="#324A5E"/>
<path d="M25.2359 25.5433C25.2359 25.5433 25.4013 26.4882 23.9131 27.1969C23.9131 27.1969 25.0233 27.2914 25.354 28.3307C25.3777 28.3544 25.9682 26.0866 25.2359 25.5433Z" fill="white"/>
<path d="M22.614 25.5433C22.614 25.5433 22.4486 26.4882 23.9368 27.1969C23.9368 27.1969 22.8266 27.2914 22.4959 28.3307C22.4722 28.3544 21.8817 26.0866 22.614 25.5433Z" fill="white"/>
<path d="M25.8029 24.0315C25.8502 23.7716 25.8738 23.4882 25.8738 23.252C25.8738 21.8346 24.9998 21.2677 23.9131 21.2677C22.8265 21.2677 21.9525 21.8346 21.9525 23.252C21.9525 23.5118 21.9761 23.7716 22.0234 24.0315C21.858 24.1023 21.8108 24.3622 21.9289 24.5984C22.0234 24.7638 22.1651 24.8819 22.3068 24.8819C22.6612 25.7323 23.2517 26.3937 23.9131 26.3937C24.5746 26.3937 25.1651 25.7323 25.5194 24.8819C25.6612 24.8819 25.8029 24.7638 25.8974 24.5984C26.0155 24.3622 25.9683 24.126 25.8029 24.0315Z" fill="#FFD05B"/>
<path d="M23.9133 20.4646C23.9133 20.4646 24.7637 20.4882 25.5196 21.1969C27.1732 22.7559 25.4251 25.0709 25.4251 25.0709C25.4251 25.0709 25.6614 24.504 25.5669 23.9134C25.5432 23.7008 25.5196 23.4646 25.5196 23.252C25.5432 22.8504 25.4488 22.2363 24.4802 22.4016C24.4802 22.4016 23.9369 22.8032 22.6141 22.4725C22.6141 22.4725 21.7637 23.7717 22.2362 24.8819C22.2362 24.8819 20.8425 22.7796 22.307 21.4331L21.9291 21.5276C21.9291 21.5276 22.4724 20.5118 23.5826 20.8662C23.5826 20.8662 23.4881 20.7008 23.1338 20.6063C23.1338 20.6063 23.6299 20.3937 23.9133 20.7481C23.9133 20.7244 24.0787 20.6063 23.9133 20.4646Z" fill="#324A5E"/>
</g>
<defs>
<clipPath id="clip0_1830_12120">
<rect width="30" height="30" fill="white" transform="translate(10 10)"/>
</clipPath>
</defs>
</svg>
