<svg width="50" height="50" viewBox="0 0 50 50" fill="none" xmlns="http://www.w3.org/2000/svg">
<rect width="50" height="50" rx="8" fill="#FFB8F4"/>
<g clip-path="url(#clip0_1830_12192)">
<path d="M25 40C33.2843 40 40 33.2843 40 25C40 16.7157 33.2843 10 25 10C16.7157 10 10 16.7157 10 25C10 33.2843 16.7157 40 25 40Z" fill="#EFC84A"/>
<path opacity="0.1" d="M40 25C40 24.9144 39.995 24.83 39.9934 24.7447L32.609 17.3603C32.4869 17.2382 32.2887 17.2382 32.1665 17.3603L31.9565 17.5703C30.9349 16.7844 29.494 16.8016 28.494 17.6275C28.3828 17.7194 28.3769 17.8888 28.4787 17.9906L30.0075 19.5194L29.5025 20.0244C29.0534 19.6682 28.5606 19.3656 28.0344 19.1225L25.5575 16.6457L25.5572 16.646C25.4166 16.4991 25.2197 16.4062 25 16.4062C24.5735 16.4062 24.2278 16.7519 24.2278 17.1785C24.2278 17.481 24.4034 17.74 24.6569 17.8669V18.4638C23.9782 18.4954 23.3266 18.6253 22.7094 18.8313L21.506 17.6278C20.4913 16.7897 19.0225 16.7828 17.9985 17.6041L17.8335 17.4391C17.7113 17.3169 17.5132 17.3169 17.391 17.4391C17.2688 17.5612 17.2688 17.7594 17.391 17.8819L17.5572 18.0481C16.7441 19.0716 16.7531 20.5341 17.5885 21.5453L18.5119 22.4687C18.0241 23.4431 17.7491 24.5418 17.7491 25.7059C17.7491 27.6543 18.5203 29.4203 19.7712 30.7228L19.7691 30.7237L19.8359 30.7905C19.8709 30.8262 19.9062 30.8618 19.9422 30.8965L20.475 31.4293L19.529 33.5937L25.9056 39.9703C33.7678 39.5016 40 32.98 40 25Z" fill="black"/>
<path d="M25.7724 17.1785C25.7724 16.7519 25.4268 16.4062 25.0002 16.4062C24.5737 16.4062 24.228 16.7519 24.228 17.1785C24.228 17.481 24.4036 17.74 24.6571 17.8669V18.8459H25.3434V17.8669C25.5968 17.74 25.7724 17.481 25.7724 17.1785Z" fill="#3A556A"/>
<path d="M32.6088 17.3603C32.4867 17.2381 32.2885 17.2381 32.1663 17.3603L29.4014 20.1253L29.8439 20.5678L32.6088 17.8028C32.7311 17.6806 32.7311 17.4825 32.6088 17.3603Z" fill="#3A556A"/>
<path d="M17.391 17.4388C17.5132 17.3166 17.7113 17.3166 17.8335 17.4388L20.5985 20.2038L20.156 20.6463L17.391 17.8813C17.2688 17.7591 17.2688 17.561 17.391 17.4388Z" fill="#3A556A"/>
<path d="M22.4653 30.2184H21.0049L19.5293 33.5937H20.4146L22.4653 30.2184Z" fill="#3A556A"/>
<path d="M27.5352 30.2184H28.9955L30.4711 33.5937H29.5858L27.5352 30.2184Z" fill="#3A556A"/>
<path d="M32.2312 17.8078C31.2084 16.7849 29.5872 16.7249 28.494 17.6275C28.3828 17.7193 28.3768 17.8887 28.4787 17.9906L32.0481 21.5599C32.15 21.6618 32.3193 21.6558 32.4112 21.5446C33.314 20.4519 33.254 18.8306 32.2312 17.8078Z" fill="#D15241"/>
<path d="M32.2314 18.126C31.2327 17.1273 29.613 17.1273 28.6143 18.126L32.048 21.5598C32.1499 21.6617 32.3199 21.6563 32.4108 21.5445C33.2261 20.5397 33.1665 19.061 32.2314 18.126Z" fill="#E56353"/>
<path d="M17.7686 17.8078C18.7914 16.7849 20.4126 16.7249 21.5057 17.6275C21.617 17.7193 21.6229 17.8887 21.521 17.9906L17.9513 21.5599C17.8494 21.6618 17.6801 21.6558 17.5882 21.5446C16.6858 20.4519 16.7458 18.8306 17.7686 17.8078Z" fill="#D15241"/>
<path d="M17.7687 18.126C18.7674 17.1273 20.3871 17.1273 21.3858 18.126L17.9521 21.5598C17.8502 21.6617 17.6802 21.6563 17.5893 21.5445C16.774 20.5397 16.8336 19.061 17.7687 18.126Z" fill="#E56353"/>
<path d="M25 32.9563C29.004 32.9563 32.25 29.7103 32.25 25.7063C32.25 21.7022 29.004 18.4563 25 18.4563C20.9959 18.4563 17.75 21.7022 17.75 25.7063C17.75 29.7103 20.9959 32.9563 25 32.9563Z" fill="#64798A"/>
<path d="M24.9999 31.4556C28.1752 31.4556 30.7493 28.8815 30.7493 25.7062C30.7493 22.5309 28.1752 19.9568 24.9999 19.9568C21.8246 19.9568 19.2505 22.5309 19.2505 25.7062C19.2505 28.8815 21.8246 31.4556 24.9999 31.4556Z" fill="white"/>
<path d="M24.9999 20.3041C28.168 20.3041 30.7364 22.8713 30.739 26.0388C30.7452 25.9285 30.7493 25.8175 30.7493 25.7057C30.7493 22.5304 28.1752 19.9563 24.9999 19.9563C21.8246 19.9563 19.2505 22.5304 19.2505 25.7057C19.2505 25.8175 19.2545 25.9285 19.2608 26.0388C19.2633 22.8713 21.8318 20.3041 24.9999 20.3041Z" fill="#EBF0F3"/>
<path d="M27.9942 28.7656C27.9607 28.7656 27.9276 28.7528 27.902 28.7275L24.1061 24.9316C24.0551 24.8806 24.0551 24.7981 24.1061 24.7472C24.157 24.6963 24.2395 24.6963 24.2905 24.7472L28.0864 28.5431C28.1373 28.594 28.1373 28.6765 28.0864 28.7275C28.0607 28.7528 28.0273 28.7656 27.9942 28.7656Z" fill="#E56353"/>
<path d="M25.21 25.1431V22.0675C25.21 21.9597 25.1226 21.8718 25.0144 21.8718C24.9066 21.8718 24.8188 21.9593 24.8188 22.0675V25.1431C24.6716 25.195 24.5519 25.3018 24.4834 25.4403H22.1356C21.9915 25.4403 21.875 25.5568 21.875 25.7009C21.875 25.845 21.9915 25.9616 22.1356 25.9616H24.4834C24.5803 26.1581 24.7806 26.2947 25.014 26.2947C25.3415 26.2947 25.6078 26.0284 25.6078 25.7009C25.6082 25.4425 25.441 25.2243 25.21 25.1431Z" fill="#64798A"/>
<path d="M25.0157 26.0332C25.1997 26.0332 25.3488 25.884 25.3488 25.7C25.3488 25.5161 25.1997 25.3669 25.0157 25.3669C24.8318 25.3669 24.6826 25.5161 24.6826 25.7C24.6826 25.884 24.8318 26.0332 25.0157 26.0332Z" fill="white"/>
</g>
<defs>
<clipPath id="clip0_1830_12192">
<rect width="30" height="30" fill="white" transform="translate(10 10)"/>
</clipPath>
</defs>
</svg>
