<svg width="50" height="50" viewBox="0 0 50 50" fill="none" xmlns="http://www.w3.org/2000/svg">
<rect width="50" height="50" rx="8" fill="#B9A2E6"/>
<g clip-path="url(#clip0_1841_6925)">
<path d="M25 40C33.2843 40 40 33.2843 40 25C40 16.7157 33.2843 10 25 10C16.7157 10 10 16.7157 10 25C10 33.2843 16.7157 40 25 40Z" fill="#54C0EB"/>
<path d="M28.8328 20.063H27.6517V17.0039H22.3486V20.063H21.1675V16.4134C21.1675 16.0886 21.4332 15.8228 21.758 15.8228H28.2423C28.5671 15.8228 28.8328 16.0886 28.8328 16.4134V20.063Z" fill="white"/>
<path d="M14.9727 20.7894V31.561C14.9727 32.0512 15.3742 32.4587 15.8703 32.4587H34.1242C34.6203 32.4528 35.0219 32.0512 35.0219 31.561V20.7894H14.9727Z" fill="#2B3B4E"/>
<path d="M35.0277 24.126C28.4785 26.0276 21.5277 26.0276 14.9785 24.126C14.9785 22.378 14.9785 21.4154 14.9785 19.6674C14.9785 19.1772 15.3801 18.7697 15.8762 18.7697C21.9588 18.7697 28.0415 18.7697 34.1301 18.7697C34.6262 18.7756 35.0277 19.1772 35.0277 19.6674C35.0277 21.4095 35.0277 22.3721 35.0277 24.126Z" fill="#324A5E"/>
<path d="M26.264 27.439H23.7364C23.6951 27.439 23.6655 27.4095 23.6655 27.3681V24.3032C23.6655 24.2618 23.6951 24.2323 23.7364 24.2323H26.264C26.3053 24.2323 26.3348 24.2618 26.3348 24.3032V27.3681C26.3348 27.4095 26.3053 27.439 26.264 27.439Z" fill="#E6E9EE"/>
<path d="M23.8604 25.8858V27.1614C23.8604 27.2086 23.8958 27.2441 23.943 27.2441H26.0454C26.0926 27.2441 26.1281 27.2086 26.1281 27.1614V25.8858H23.8604Z" fill="#ACB3BA"/>
</g>
<defs>
<clipPath id="clip0_1841_6925">
<rect width="30" height="30" fill="white" transform="translate(10 10)"/>
</clipPath>
</defs>
</svg>
