<svg width="50" height="50" viewBox="0 0 50 50" fill="none" xmlns="http://www.w3.org/2000/svg">
<rect width="50" height="50" rx="8" fill="#B1C3FF"/>
<g clip-path="url(#clip0_1830_12150)">
<path d="M25 10C33.2842 10 40 16.7158 40 25C40 33.2842 33.2842 40 25 40C16.7158 40 10 33.2842 10 25C10 16.7158 16.7158 10 25 10Z" fill="#2394BC"/>
<path d="M14.6776 19.3423L30.0163 15.2326C30.5002 15.1027 30.9973 15.3868 31.1257 15.8668L34.1536 27.1669C34.2826 27.6472 33.9943 28.1413 33.5101 28.2712L18.1714 32.3812C17.6875 32.5108 17.1904 32.2267 17.062 31.7467L14.0341 20.4463C13.9054 19.9663 14.1937 19.4719 14.6776 19.3423Z" fill="#EDEDED"/>
<path d="M15.9342 20.2411L29.3682 16.6414C29.7393 16.5421 30.1206 16.7614 30.2196 17.1316L32.7342 26.5156C32.8335 26.8855 32.6133 27.2665 32.2419 27.3658L18.8079 30.9655C18.4371 31.0651 18.0555 30.8455 17.9565 30.475L15.4422 21.0913C15.3432 20.7208 15.5634 20.3404 15.9342 20.2411Z" fill="#4681A0"/>
<path d="M17.5112 19.3042H33.3911C33.8921 19.3042 34.2983 19.7071 34.2983 20.2042V31.903C34.2983 32.3998 33.8921 32.8027 33.3911 32.8027H17.5112C17.0099 32.8027 16.604 32.3998 16.604 31.903V20.2042C16.604 19.7068 17.0099 19.3042 17.5112 19.3042Z" fill="#F6F6F6"/>
<path d="M18.4928 20.4973H32.4008C32.7848 20.4973 33.0959 20.8081 33.0959 21.1912V30.9061C33.0959 31.2892 32.7848 31.5997 32.4008 31.5997H18.4928C18.1088 31.5997 17.7974 31.2892 17.7974 30.9061V21.1915C17.7971 20.8081 18.1085 20.4973 18.4928 20.4973Z" fill="#A3E0F5"/>
<path d="M19.0011 28.297C18.5844 28.297 18.1824 28.3318 17.7969 28.3909V30.9061C17.7969 31.2892 18.1083 31.5997 18.4923 31.5997H23.7369C23.7762 31.4527 23.8026 31.303 23.8026 31.1491C23.8029 29.5741 21.6531 28.297 19.0011 28.297Z" fill="#3DB39E"/>
<path d="M33.0957 30.9065V27.1708C32.1669 26.932 31.1466 26.8 30.0765 26.8C25.7559 26.8 22.2534 28.9492 22.2534 31.6H32.4006C32.7846 31.6 33.0957 31.2895 33.0957 30.9065Z" fill="#4BC2AD"/>
<path d="M17.7969 21.1915V24.6664C17.9445 24.6841 18.0939 24.6958 18.2463 24.6958C20.3169 24.6958 21.9957 23.0179 21.9957 20.9479C21.9957 20.7952 21.9837 20.6452 21.966 20.4973H18.4926C18.1083 20.4973 17.7969 20.8081 17.7969 21.1915Z" fill="#EFC75E"/>
<path d="M33.3915 32.8027H17.5116C17.0103 32.8027 16.6044 32.3998 16.6044 31.903V20.2042C16.6044 20.1145 16.6218 20.0296 16.6464 19.948C16.2756 20.0611 16.0044 20.3995 16.0044 20.8042V32.503C16.0044 32.9998 16.4106 33.4027 16.9116 33.4027H32.7915C33.2022 33.4027 33.5454 33.1303 33.657 32.7589C33.5724 32.7847 33.4845 32.8027 33.3915 32.8027Z" fill="#1F85A9"/>
<path d="M16.6044 30.0376V20.2042C16.6044 20.1145 16.6218 20.0296 16.6464 19.948C16.2756 20.0611 16.0044 20.3995 16.0044 20.8042V27.7984L16.6044 30.0376Z" fill="#D5D5D5"/>
<path d="M16.3044 20.1418C16.1211 20.3053 16.0044 20.5399 16.0044 20.8042V23.1886L16.6044 25.4278V20.2042C16.6044 20.1538 16.6107 20.1052 16.62 20.0575L16.3044 20.1418Z" fill="#3F7490"/>
</g>
<defs>
<clipPath id="clip0_1830_12150">
<rect width="30" height="30" fill="white" transform="translate(10 10)"/>
</clipPath>
</defs>
</svg>
