<svg width="50" height="50" viewBox="0 0 50 50" fill="none" xmlns="http://www.w3.org/2000/svg">
<rect width="50" height="50" rx="8" fill="#FBFFB2"/>
<g clip-path="url(#clip0_1833_7183)">
<path d="M25 40C33.2843 40 40 33.2843 40 25C40 16.7157 33.2843 10 25 10C16.7157 10 10 16.7157 10 25C10 33.2843 16.7157 40 25 40Z" fill="#E05B49"/>
<path opacity="0.1" d="M39.0514 30.2547L33.0277 24.2338L25.2027 16.4056H24.7964V17.3025L25.8277 18.3338C25.3808 18.2588 24.9121 18.2431 24.4339 18.2963C23.3671 18.4138 22.3998 18.8825 21.6449 19.5791L20.3246 18.2588L20.0371 18.5463L21.3573 19.8666C20.6648 20.6178 20.1974 21.5788 20.0777 22.64C20.0221 23.1285 20.0446 23.6019 20.1224 24.0566L19.0839 23.0181H18.187V23.4212L21.4479 26.6822C22.1476 27.4596 22.6135 28.409 22.8364 29.4237L20.9586 27.5459L20.671 27.2584L20.0366 27.8928L20.3242 28.1803L22.9929 30.8491V31.3678C22.8586 31.3834 22.7586 31.5053 22.7742 31.6397C22.7792 31.6859 22.7998 31.725 22.8267 31.7584L22.8232 31.7591L22.8389 31.7747C22.8436 31.7797 22.8483 31.7847 22.8536 31.7894L22.993 31.9288V32.2176C22.8586 32.2332 22.7586 32.3551 22.7743 32.4894C22.7792 32.5357 22.7999 32.5748 22.8268 32.6085L22.8233 32.6092L22.8392 32.6251C22.8439 32.6301 22.8486 32.6351 22.8536 32.6394L22.993 32.7788V33.0488C22.993 33.0582 22.9961 33.0613 22.9961 33.0676H22.993C22.8586 33.0832 22.7586 33.2051 22.7743 33.3395C22.7836 33.4082 22.818 33.4676 22.868 33.5082L28.8561 39.4963C33.5649 38.2478 37.363 34.7669 39.0514 30.2547Z" fill="black"/>
<path opacity="0.1" d="M29.6749 18.2588L29.4874 18.4494L29.4843 18.4463L29.0405 18.8932L29.328 19.1807L39.3881 29.2407C39.4859 28.9079 39.5728 28.5707 39.6478 28.2289L29.9624 18.5463L29.6749 18.2588Z" fill="black"/>
<path d="M24.4349 18.296C22.1649 18.5469 20.3349 20.3713 20.0774 22.6406C19.9033 24.1744 20.4308 25.5878 21.3796 26.6022C22.4418 27.7375 22.9924 29.2591 22.9924 30.8138V30.934H27.0067V30.814C27.0067 29.2168 27.6405 27.7044 28.7027 26.5112C29.4814 25.6362 29.9549 24.4834 29.9549 23.2197C29.9552 20.2972 27.4246 17.9653 24.4349 18.296Z" fill="#FCD462"/>
<path d="M25.2025 16.4062H24.7969V17.3031H25.2025V16.4062Z" fill="#FCD462"/>
<path d="M31.8134 23.0172H30.9165V23.4229H31.8134V23.0172Z" fill="#FCD462"/>
<path d="M19.0844 23.0172H18.1875V23.4229H19.0844V23.0172Z" fill="#FCD462"/>
<path d="M29.6757 18.2592L29.0415 18.8934L29.3283 19.1803L29.9625 18.5461L29.6757 18.2592Z" fill="#FCD462"/>
<path d="M20.6723 27.2601L20.0381 27.8943L20.3249 28.1811L20.9591 27.5469L20.6723 27.2601Z" fill="#FCD462"/>
<path d="M29.3289 27.2608L29.042 27.5476L29.6761 28.1819L29.963 27.8951L29.3289 27.2608Z" fill="#FCD462"/>
<path d="M20.3244 18.2585L20.0376 18.5453L20.6718 19.1795L20.9586 18.8927L20.3244 18.2585Z" fill="#FCD462"/>
<path d="M27.0071 30.9341H22.9927V33.051C22.9927 33.1606 23.0817 33.2494 23.1914 33.2494H26.8089C26.9186 33.2494 27.0074 33.1604 27.0074 33.051V30.9341H27.0071Z" fill="#64798A"/>
<path d="M26.953 30.9356L22.9927 31.369C22.8577 31.3837 22.7602 31.5053 22.7749 31.6403C22.7896 31.7753 22.9111 31.8728 23.0461 31.858L27.0064 31.4243C27.1414 31.4096 27.2389 31.288 27.2242 31.153C27.2096 31.0181 27.0883 30.9206 26.953 30.9356Z" fill="#2F4859"/>
<path d="M26.953 31.7859L22.9927 32.2197C22.8577 32.2344 22.7602 32.3559 22.7749 32.4909C22.7896 32.6259 22.9111 32.7234 23.0461 32.7087L27.0064 32.275C27.1414 32.2603 27.2389 32.1387 27.2242 32.0037C27.2096 31.8684 27.0883 31.7709 26.953 31.7859Z" fill="#2F4859"/>
<path d="M26.953 32.6363L22.9927 33.0701C22.8577 33.0848 22.7602 33.2063 22.7749 33.3413C22.7896 33.4763 22.9111 33.5738 23.0461 33.5591L27.0064 33.1253C27.1414 33.1106 27.2389 32.9891 27.2242 32.8541C27.2096 32.7188 27.0883 32.6213 26.953 32.6363Z" fill="#2F4859"/>
<path d="M24.0869 33.2446C24.0869 33.4375 24.4957 33.5937 24.9997 33.5937C25.5038 33.5937 25.9122 33.4374 25.9122 33.2446H24.0869Z" fill="#2F4859"/>
<path d="M26.0678 30.9341L25.7577 30.896L26.7387 22.9075L25.8693 23.646L25.0002 22.7535L24.1312 23.646L23.2615 22.9075L24.2424 30.896L23.9324 30.9341L22.854 22.1516L24.1108 23.2188L25.0002 22.3057L25.8896 23.2188L27.1465 22.1516L26.0678 30.9341Z" fill="#DC8744"/>
</g>
<defs>
<clipPath id="clip0_1833_7183">
<rect width="30" height="30" fill="white" transform="translate(10 10)"/>
</clipPath>
</defs>
</svg>
