<svg width="86" height="35" viewBox="0 0 86 35" fill="none" xmlns="http://www.w3.org/2000/svg">
<path d="M25.3 28V13.778H30.89V18.068L29.98 16.846C30.4133 15.7367 31.1067 14.9047 32.06 14.35C33.0133 13.7953 34.1573 13.518 35.492 13.518V18.718C35.232 18.6833 34.998 18.6573 34.79 18.64C34.5993 18.6227 34.4 18.614 34.192 18.614C33.308 18.614 32.58 18.848 32.008 19.316C31.4533 19.7667 31.176 20.5553 31.176 21.682V28H25.3ZM44.8825 28.26C43.1491 28.26 41.6325 27.9393 40.3325 27.298C39.0498 26.6567 38.0531 25.7813 37.3425 24.672C36.6318 23.5453 36.2765 22.28 36.2765 20.876C36.2765 19.4373 36.6231 18.1633 37.3165 17.054C38.0271 15.9447 38.9891 15.078 40.2025 14.454C41.4331 13.83 42.8111 13.518 44.3365 13.518C45.7405 13.518 47.0318 13.7953 48.2105 14.35C49.4065 14.9047 50.3598 15.728 51.0705 16.82C51.7985 17.912 52.1625 19.264 52.1625 20.876C52.1625 21.084 52.1538 21.318 52.1365 21.578C52.1191 21.8207 52.1018 22.046 52.0845 22.254H41.1385V19.42H48.9645L46.7545 20.174C46.7545 19.6193 46.6505 19.1513 46.4425 18.77C46.2518 18.3713 45.9831 18.068 45.6365 17.86C45.2898 17.6347 44.8738 17.522 44.3885 17.522C43.9031 17.522 43.4785 17.6347 43.1145 17.86C42.7678 18.068 42.4991 18.3713 42.3085 18.77C42.1178 19.1513 42.0225 19.6193 42.0225 20.174V21.058C42.0225 21.6647 42.1438 22.1847 42.3865 22.618C42.6291 23.0513 42.9758 23.3807 43.4265 23.606C43.8771 23.814 44.4231 23.918 45.0645 23.918C45.7231 23.918 46.2605 23.8313 46.6765 23.658C47.1098 23.4847 47.5605 23.2247 48.0285 22.878L51.0965 25.972C50.4031 26.7173 49.5451 27.2893 48.5225 27.688C47.5171 28.0693 46.3038 28.26 44.8825 28.26ZM57.7929 28L52.0729 13.778H58.1049L62.4469 25.322H59.4049L64.0329 13.778H69.5969L63.8769 28H57.7929Z" fill="#6B36D0"/>
<path d="M6.17226 15.9658C6.17226 15.9658 4.96873 19.9058 5.95015 22.7124C7.09495 25.2731 8.79531 27.1494 10.8999 28.3895C13.0044 29.6295 15.3442 29.9888 17.5688 29.4134C19.7933 28.8381 21.7831 27.3591 23.24 25.1979L18.751 21.6968C17.9769 22.8451 17.0735 23.5404 15.8915 23.8461C14.7096 24.1518 12.416 23.9075 11.2978 23.2486C10.8253 22.9702 10.4696 22.7779 10.0288 22.4458C8.14787 21.0291 6.8094 18.2328 6.17226 15.9658Z" fill="#6B36D0"/>
<path d="M0 17.2437C0 17.2437 -0.000964781 10.5578 1.18906 7.91465C2.37908 5.27148 4.39327 3.08488 6.93004 1.68227C9.46682 0.279653 12.3897 -0.263511 15.261 0.1341C18.1323 0.531711 20.7976 1.8487 22.8577 3.88789L18.4349 8.35623C17.3403 7.27277 15.9242 6.57303 14.3986 6.36177C12.873 6.15051 10.9296 5.95849 9.58175 6.70372C8.23392 7.44896 5.74905 7.6619 1.91635 12.4528C1.91635 12.4528 1.18906 13.0022 0 17.2437Z" fill="#6B36D0"/>
<circle cx="78" cy="21" r="8" fill="#6B36D0"/>
<g clip-path="url(#clip0_2352_7853)">
<path d="M81.8875 22.1125C81.45 21.675 81.1042 21.8167 80.8042 22.1125L79.075 23.8417C79.0083 23.9083 78.9458 24.0375 78.9292 24.1292L78.8333 24.7917C78.8 25.0292 78.9667 25.2 79.2042 25.1625L79.8667 25.0667C79.9583 25.0542 80.0875 24.9875 80.1542 24.9208L81.8833 23.1917C82.1875 22.8958 82.325 22.55 81.8875 22.1125Z" fill="white"/>
<path d="M75.8116 16.8606C76.0407 16.8309 76.2296 17.0213 76.2296 17.2523V18.8333C76.2296 19.0635 76.043 19.25 75.8129 19.25H74.2504C74.0203 19.25 73.8303 19.0626 73.8582 18.8342C73.9947 17.7148 74.697 17.005 75.8116 16.8606Z" fill="white"/>
<path d="M81.7205 19.25H80.1872C79.957 19.25 79.7705 19.0635 79.7705 18.8333V17.2526C79.7705 17.0215 79.9597 16.8311 80.1889 16.861C81.2863 17.0041 81.9849 17.695 82.1372 18.7833C82.1705 19.0292 81.9705 19.25 81.7205 19.25Z" fill="white"/>
<path d="M75.8123 22.792C76.0424 22.792 76.2289 22.9785 76.2289 23.2087V24.717C76.2289 24.967 76.0081 25.167 75.7581 25.1337C74.6876 24.9744 74.0123 24.2882 73.8638 23.2129C73.8321 22.9829 74.0229 22.792 74.2551 22.792H75.8123Z" fill="white"/>
<path d="M76.2288 20.292C76.2288 20.0619 76.0423 19.8753 75.8122 19.8753H74.2497C74.0196 19.8753 73.833 20.0619 73.833 20.292V21.7503C73.833 21.9805 74.0196 22.167 74.2497 22.167H75.8122C76.0423 22.167 76.2288 21.9805 76.2288 21.7503V20.292Z" fill="white"/>
<path d="M79.1462 20.292C79.1462 20.0619 78.9596 19.8753 78.7295 19.8753H77.2712C77.041 19.8753 76.8545 20.0619 76.8545 20.292V21.7503C76.8545 21.9805 77.041 22.167 77.2712 22.167H78.7295C78.9587 22.167 79.1462 21.9795 79.1462 21.7503V20.292Z" fill="white"/>
<path d="M79.1462 17.25C79.1462 17.0199 78.9596 16.8333 78.7295 16.8333H77.2712C77.041 16.8333 76.8545 17.0199 76.8545 17.25V18.8333C76.8545 19.0635 77.041 19.25 77.2712 19.25H78.7295C78.9596 19.25 79.1462 19.0635 79.1462 18.8333V17.25Z" fill="white"/>
</g>
<defs>
<clipPath id="clip0_2352_7853">
<rect width="10" height="10" fill="white" transform="translate(73 16)"/>
</clipPath>
</defs>
</svg>
